<?xml version="1.0"?>
<svg xmlns="http://www.w3.org/2000/svg" viewBox="0 0 32 32" width="512" height="512"><title>a</title><g id="_01_Computer" data-name="01 Computer"><g id="_01_Computer-2" data-name="01 Computer"><path d="M29.387,13.981a1.177,1.177,0,0,1-1.173,1.172H3.787a1.176,1.176,0,0,1-1.172-1.172V2.163A1.176,1.176,0,0,1,3.787.991H28.214a1.176,1.176,0,0,1,1.173,1.172Z" style="fill:#f0b634"/><path d="M28.214,15.653H3.787a1.674,1.674,0,0,1-1.672-1.672V2.163A1.674,1.674,0,0,1,3.787.491H28.214a1.675,1.675,0,0,1,1.673,1.672V13.981A1.675,1.675,0,0,1,28.214,15.653ZM3.787,1.491a.673.673,0,0,0-.672.672V13.981a.673.673,0,0,0,.672.672H28.214a.673.673,0,0,0,.673-.672V2.163a.673.673,0,0,0-.673-.672Z" style="fill:#4c3bb6"/><path d="M29.387,29.837a1.177,1.177,0,0,1-1.173,1.172H3.787a1.176,1.176,0,0,1-1.172-1.172V22.562a1.175,1.175,0,0,1,1.172-1.171H28.214a1.176,1.176,0,0,1,1.173,1.171Z" style="fill:#3aa68a"/><path d="M28.214,31.509H3.787a1.674,1.674,0,0,1-1.672-1.672V22.562a1.674,1.674,0,0,1,1.672-1.671H28.214a1.674,1.674,0,0,1,1.673,1.671v7.275A1.675,1.675,0,0,1,28.214,31.509ZM3.787,21.891a.673.673,0,0,0-.672.671v7.275a.673.673,0,0,0,.672.672H28.214a.673.673,0,0,0,.673-.672V22.562a.673.673,0,0,0-.673-.671Z" style="fill:#4c3bb6"/><polygon points="20.495 18.699 11.505 18.699 12.678 15.154 19.322 15.154 20.495 18.699" style="fill:#d64439"/><path d="M21.187,19.2H10.812l1.505-4.545h7.367Zm-8.99-1H19.8l-.842-2.545H13.04Z" style="fill:#4c3bb6"/><rect x="9.479" y="18.199" width="13.042" height="1" style="fill:#4c3bb6"/><rect x="2.614" y="12.654" width="11.386" height="1" style="fill:#4c3bb6"/><rect x="17.889" y="12.654" width="11.387" height="1" style="fill:#4c3bb6"/><rect x="4.202" y="22.596" width="1.696" height="1" style="fill:#4c3bb6"/><rect x="6.94" y="22.596" width="1.696" height="1" style="fill:#4c3bb6"/><rect x="9.677" y="22.596" width="1.696" height="1" style="fill:#4c3bb6"/><rect x="12.415" y="22.596" width="1.696" height="1" style="fill:#4c3bb6"/><rect x="15.151" y="22.596" width="1.699" height="1" style="fill:#4c3bb6"/><rect x="17.889" y="22.596" width="1.696" height="1" style="fill:#4c3bb6"/><rect x="20.627" y="22.596" width="1.696" height="1" style="fill:#4c3bb6"/><rect x="23.363" y="22.596" width="1.697" height="1" style="fill:#4c3bb6"/><rect x="26.102" y="22.596" width="1.696" height="1" style="fill:#4c3bb6"/><rect x="4.202" y="24.615" width="1.696" height="1" style="fill:#4c3bb6"/><rect x="6.94" y="24.615" width="1.696" height="1" style="fill:#4c3bb6"/><rect x="9.677" y="24.615" width="1.696" height="1" style="fill:#4c3bb6"/><rect x="12.415" y="24.615" width="1.696" height="1" style="fill:#4c3bb6"/><rect x="15.151" y="24.615" width="1.699" height="1" style="fill:#4c3bb6"/><rect x="17.889" y="24.615" width="1.696" height="1" style="fill:#4c3bb6"/><rect x="20.627" y="24.615" width="1.696" height="1" style="fill:#4c3bb6"/><rect x="23.363" y="24.615" width="1.697" height="1" style="fill:#4c3bb6"/><rect x="26.102" y="24.615" width="1.696" height="1" style="fill:#4c3bb6"/><rect x="4.202" y="26.634" width="1.696" height="1" style="fill:#4c3bb6"/><rect x="6.94" y="26.634" width="1.696" height="1" style="fill:#4c3bb6"/><rect x="9.677" y="26.634" width="1.696" height="1" style="fill:#4c3bb6"/><rect x="12.415" y="26.634" width="1.696" height="1" style="fill:#4c3bb6"/><rect x="15.151" y="26.634" width="1.699" height="1" style="fill:#4c3bb6"/><rect x="17.889" y="26.634" width="1.696" height="1" style="fill:#4c3bb6"/><rect x="20.627" y="26.634" width="1.696" height="1" style="fill:#4c3bb6"/><rect x="23.363" y="26.634" width="1.697" height="1" style="fill:#4c3bb6"/><rect x="26.102" y="26.634" width="1.696" height="1" style="fill:#4c3bb6"/><rect x="4.202" y="28.652" width="1.696" height="1" style="fill:#4c3bb6"/><rect x="6.94" y="28.652" width="1.696" height="1" style="fill:#4c3bb6"/><rect x="9.677" y="28.652" width="9.908" height="1" style="fill:#4c3bb6"/><rect x="20.627" y="28.652" width="1.696" height="1" style="fill:#4c3bb6"/><rect x="23.363" y="28.652" width="1.697" height="1" style="fill:#4c3bb6"/><rect x="26.102" y="28.652" width="1.696" height="1" style="fill:#4c3bb6"/><rect x="15.427" y="2" width="1.146" height="1" style="fill:#4c3bb6"/></g></g></svg>
